<svg version="1" xmlns="http://www.w3.org/2000/svg" width="933.333" height="933.333" viewBox="0 0 700.000000 700.000000"><path d="M89 202v128.9l3.5.7c1.9.3 24.1.5 49.3.3 42-.4 46-.5 47.6-2.2 1-.9 2.4-1.7 3.2-1.7 1.2 0 1.4-6.5 1.4-44 0-38.4.2-44 1.5-44 .8 0 1.5.4 1.5 1s3.3 1 8 1c7.3 0 8 .2 8 2 0 1.5-.7 2-2.5 2-1.4 0-2.5.4-2.5 1 0 .5 1.8 1 4 1s4 .4 4 1c0 .5.5 1 1 1 .6 0 1-2.3 1-5 0-3.8.4-5 1.5-5 1.3 0 1.5 5.6 1.5 44s.2 44 1.5 44c.9 0 1.5.9 1.5 2.1v2.1l51.8-.3c46.8-.4 52-.6 53.5-2.1s1.7-6.2 1.7-49.7c0-31.4-.3-48.1-1-48.1-.5 0-1-.7-1-1.5s-.5-1.5-1.1-1.5c-.6 0-4.8-3.8-9.5-8.4-6.2-6.2-8.4-9.1-8.4-11 0-1.6.6-2.6 1.5-2.6.8 0 1.5-.5 1.5-1 0-.6.7-1 1.5-1s1.5-.5 1.5-1c0-1.8 6-7 8-7 1.1 0 2-.7 2-1.5s.7-1.5 1.5-1.5 1.5-.7 1.5-1.5.5-1.5 1-1.5c.7 0 1-19.8 1-57.4 0-62.7.4-58.6-5.6-58.6-1.3 0-2.4-.5-2.4-1 0-.7-39.7-1-117-1H89v129zm108-50c0 .6 5.2 1 13.5 1 11.3 0 13.5.2 13.5 1.5 0 1-1 1.5-3.2 1.5-1.8 0-4.3.3-5.5.6-4.1 1.1-2.4 2.4 3.2 2.4 4.2 0 5.5.3 5.5 1.5 0 .8.5 1.5 1 1.5.6 0 1-2.5 1-5.5 0-4.2.3-5.5 1.5-5.5s1.5 1.7 1.5 9.5v9.5h-35v-9.5c0-7.8.3-9.5 1.5-9.5.8 0 1.5.4 1.5 1zM353 85c0 7.3-.4 12-1 12-.7 0-1 39.3-1 116s.3 116 1 116c.6 0 1 .7 1 1.5 0 1.3 5.6 1.5 44.5 1.5s44.5-.2 44.5-1.5c0-.8-.7-1.5-1.5-1.5-1.3 0-1.5-5.8-1.5-46v-46h113V165.3l-12.2-.6c-6.6-.4-30.3-.7-52.5-.7h-40.4l.7-6.3c.7-6.3 1.3-8.2 2.1-6 .6 1.7 73.3 1.9 73.3.3 0-.6 5.5-1 14.5-1H552V75h-4c-2.2 0-4-.5-4-1 0-.7-32.5-1-95.5-1H353v12zM100 335.5c0 1.3 4.2 1.5 32 1.5s32-.2 32-1.5-4.2-1.5-32-1.5-32 .2-32 1.5zM235 335.5c0 1.3 4.4 1.5 33.5 1.5s33.5-.2 33.5-1.5-4.4-1.5-33.5-1.5-33.5.2-33.5 1.5zM364 335.5c0 1.3 9.4 1.5 79 1.5s79-.2 79-1.5-9.4-1.5-79-1.5-79 .2-79 1.5zM92.3 355.8l-3.3.3V520h124v22h-60.5c-39.7 0-60.5.3-60.5 1 0 .5-.7 1-1.5 1-1.3 0-1.5 4.4-1.5 34v34h3c1.7 0 3 .4 3 1 0 .7 33.8 1 99.5 1s99.5-.3 99.5-1c0-.6 2.9-1 6.8-1 3.7 0 8.4-.3 10.5-.6l3.7-.7V450h-12c-10 0-12-.3-12-1.5 0-1.3-5.9-1.5-47-1.5h-47v-4.9c0-3.4.4-5.1 1.5-5.5 1.9-.7 1.9-2.6 0-2.6-.8 0-1.5-.7-1.5-1.5 0-1.3 7.2-1.5 59-1.5h59v-74.8l-2.7-.6c-3-.6-214.6-.4-220 .2zM344.3 355.7l-7.3.4V437h43v175h3c1.7 0 3 .4 3 1 0 .7 14.8 1 42.5 1s42.5-.3 42.5-1c0-.6 2.2-1 4.9-1 2.6 0 7.6-.3 11-.6l6.1-.7V437.1l19.8-.3c17-.3 20.1-.5 21.5-2 .9-.9 1.7-2.1 1.7-2.7 0-.6.9-1.1 2-1.1 2.1 0 6-3.3 6-5 0-.6.6-1 1.3-1 .7 0 2.1-1.1 3.1-2.5s2.3-2.5 2.8-2.5c1.3 0 3.8-2.6 3.8-3.9 0-.6.7-1.1 1.5-1.1s1.5-.7 1.5-1.5.7-1.5 1.5-1.5 1.5-.4 1.5-.9 1-1.3 2.2-1.7c2.6-.8 4.8-2.8 4.8-4.3 0-.6.7-1.1 1.5-1.1s1.5-.7 1.5-1.5.5-1.5 1.1-1.5c.7 0 2.6-1.6 4.5-3.5 1.8-1.9 3.7-3.5 4.3-3.5.6 0 1.1-.5 1.1-1 0-1.7 3.9-5 6-5 1.1 0 2-.5 2-1.1 0-1.4 5.5-6.9 6.9-6.9.6 0 1.1-.7 1.1-1.5s.7-1.5 1.5-1.5 1.5-.5 1.5-1.1c0-1.4 2.5-3.9 3.9-3.9.6 0 1.1-.7 1.1-1.5s.7-1.5 1.5-1.5 1.5-.5 1.5-1.1c0-1.1 5.4-6.9 6.5-6.9 1 0 4.9-4 4.3-4.5-.6-.6-265.3-1.4-275.5-.8z"/><path d="M202 435c0 .7 15 1 43 1s43-.3 43-1-15-1-43-1-43 .3-43 1zM359 440.5c0 1.2 1.4 1.5 6.5 1.5 3.7 0 6.5.4 6.5 1 0 .5 1.1 1 2.5 1 2 0 2.5-.5 2.5-2.5 0-2.5-.1-2.5-9-2.5-7.3 0-9 .3-9 1.5zM103 524c0 .7 16.8 1 48.4 1 41.7 0 48.7.2 50 1.5.8.8 3.1 1.5 5 1.5 3.2 0 3.6-.3 3.6-2.5V523h-53.5c-35 0-53.5.3-53.5 1z"/></svg>